<svg xmlns="http://www.w3.org/2000/svg" viewBox="0 0 800 600" role="img">
  <defs>
    <linearGradient id="bg" x1="0" y1="0" x2="0" y2="1">
      <stop offset="0" stop-color="#0a1422"/>
      <stop offset="1" stop-color="#114F8C"/>
    </linearGradient>
    <radialGradient id="glow" cx="0.5" cy="0.42" r="0.55">
      <stop offset="0" stop-color="#8FC3FF" stop-opacity="0.35"/>
      <stop offset="1" stop-color="#8FC3FF" stop-opacity="0"/>
    </radialGradient>
  </defs>
  <rect width="800" height="600" fill="url(#bg)"/>
  <rect width="800" height="600" fill="url(#glow)"/>
  
    <g transform="translate(400 300) rotate(35)">
      <rect x="-14" y="-200" width="28" height="330" rx="6" fill="#c7ced6"/>
      <path d="M-14 130 Q-14 190 -70 190" stroke="#c7ced6" stroke-width="28" fill="none" stroke-linecap="round"/>
      <g fill="#9aa3ad">
        <rect x="-30" y="-200" width="60" height="22" rx="4"/>
        <rect x="-30" y="-160" width="60" height="22" rx="4"/>
      </g>
      <g stroke="#114F8C" stroke-width="3" opacity="0.7"><line x1="-14" y1="-120" x2="14" y2="-128"/><line x1="-14" y1="-102" x2="14" y2="-110"/><line x1="-14" y1="-84" x2="14" y2="-92"/><line x1="-14" y1="-66" x2="14" y2="-74"/><line x1="-14" y1="-48" x2="14" y2="-56"/><line x1="-14" y1="-30" x2="14" y2="-38"/><line x1="-14" y1="-12" x2="14" y2="-20"/><line x1="-14" y1="6" x2="14" y2="-2"/><line x1="-14" y1="24" x2="14" y2="16"/><line x1="-14" y1="42" x2="14" y2="34"/><line x1="-14" y1="60" x2="14" y2="52"/><line x1="-14" y1="78" x2="14" y2="70"/></g>
    </g>
</svg>